<svg width="220" height="240" viewBox="0 0 110 130" fill="none" xmlns="http://www.w3.org/2000/svg">
  <ellipse cx="55" cy="125" rx="30" ry="5" fill="#4C1D95" opacity="0.3"/>
  <rect x="15" y="20" width="80" height="98" rx="12" fill="#FDE047"/>
  <rect x="15" y="20" width="80" height="98" rx="12" stroke="#92400E" stroke-width="3"/>
  <rect x="38" y="12" width="34" height="18" rx="6" fill="#F9A825" stroke="#92400E" stroke-width="2.5"/>
  <rect x="46" y="16" width="18" height="8" rx="4" fill="#FDE047" stroke="#92400E" stroke-width="2"/>
  <ellipse cx="38" cy="52" rx="11" ry="12" fill="white" stroke="#92400E" stroke-width="2.5"/>
  <ellipse cx="72" cy="52" rx="11" ry="12" fill="white" stroke="#92400E" stroke-width="2.5"/>
  <circle cx="40" cy="53" r="5" fill="#1A1A1A"/>
  <circle cx="74" cy="53" r="5" fill="#1A1A1A"/>
  <circle cx="42" cy="50" r="2" fill="white"/>
  <circle cx="76" cy="50" r="2" fill="white"/>
  <ellipse cx="26" cy="63" rx="7" ry="4" fill="#FCA5A5" opacity="0.7"/>
  <ellipse cx="84" cy="63" rx="7" ry="4" fill="#FCA5A5" opacity="0.7"/>
  <path d="M34 73 Q55 92 76 73" stroke="#92400E" stroke-width="3" stroke-linecap="round" fill="none"/>
  <path d="M42 76 Q55 88 68 76" fill="white"/>
  <path d="M15 62 Q2 55 6 45" stroke="#FDE047" stroke-width="7" stroke-linecap="round" fill="none"/>
  <path d="M15 62 Q2 55 6 45" stroke="#92400E" stroke-width="3" stroke-linecap="round" fill="none"/>
  <path d="M95 62 Q108 55 104 45" stroke="#FDE047" stroke-width="7" stroke-linecap="round" fill="none"/>
  <path d="M95 62 Q108 55 104 45" stroke="#92400E" stroke-width="3" stroke-linecap="round" fill="none"/>
  <text x="55" y="104" text-anchor="middle" font-family="'Comic Sans MS', cursive" font-weight="900" font-size="11" fill="#92400E" letter-spacing="1">PROGRESSO</text>
</svg>
