<svg xmlns="http://www.w3.org/2000/svg" viewBox="0 0 24 24" fill="currentColor">
  <path d="M20.447 20.452h-3.554v-5.569c0-1.328-.475-2.236-1.986-2.236-1.081 0-1.722.731-2.004 1.437-.103.25-.129.599-.129.948v5.42h-3.554s.046-8.789 0-9.708h3.554v1.375c.425-.655 1.187-1.588 2.882-1.588 2.105 0 3.684 1.377 3.684 4.342v5.579zM5.337 8.855c-1.144 0-1.915-.758-1.915-1.71 0-.955.771-1.71 1.958-1.71 1.187 0 1.914.755 1.938 1.71 0 .952-.751 1.71-1.981 1.71zm1.581 11.597H3.715V9.644h3.203v10.808zM22.225 0H1.771C.792 0 0 .774 0 1.729v20.542C0 23.227.792 24 1.771 24h20.451C23.2 24 24 23.227 24 22.271V1.729C24 .774 23.2 0 22.225 0z"/>
</svg>
